<?xml version="1.0" encoding="UTF-8" standalone="no"?>
<!-- Generator: Adobe Illustrator 16.0.0, SVG Export Plug-In . SVG Version: 6.00 Build 0)  -->

<svg
   version="1.1"
   id="Layer_1"
   x="0px"
   y="0px"
   width="1630"
   height="344"
   viewBox="310 223 1166.2368 246.12606"
   enable-background="new 0 0 1800 1350"
   xml:space="preserve"
   sodipodi:docname="akuity.svg"
   inkscape:version="1.3.2 (091e20ef0f, 2023-11-25)"
   xmlns:inkscape="http://www.inkscape.org/namespaces/inkscape"
   xmlns:sodipodi="http://sodipodi.sourceforge.net/DTD/sodipodi-0.dtd"
   xmlns:xlink="http://www.w3.org/1999/xlink"
   xmlns="http://www.w3.org/2000/svg"
   xmlns:svg="http://www.w3.org/2000/svg"><defs
   id="defs11" /><sodipodi:namedview
   id="namedview11"
   pagecolor="#ffffff"
   bordercolor="#000000"
   borderopacity="0.25"
   inkscape:showpageshadow="2"
   inkscape:pageopacity="0.0"
   inkscape:pagecheckerboard="0"
   inkscape:deskcolor="#d1d1d1"
   showgrid="false"
   inkscape:zoom="0.85111111"
   inkscape:cx="841.84073"
   inkscape:cy="86.357702"
   inkscape:window-width="5104"
   inkscape:window-height="1355"
   inkscape:window-x="26"
   inkscape:window-y="23"
   inkscape:window-maximized="0"
   inkscape:current-layer="Layer_1" />
<g
   id="g6"
   transform="translate(-38.610807,-320.296)">
	<path
   d="m 785.659,713.268 c 0.46,1.387 0.694,2.662 0.694,3.816 0,3.01 -1.105,5.467 -3.318,7.373 -2.212,1.91 -4.776,2.863 -7.684,2.863 -4.659,0 -7.8,-2.295 -9.429,-6.893 l -6.747,-18.613 H 715.06 l -6.816,18.555 c -1.621,4.637 -4.792,6.951 -9.527,6.951 -2.774,0 -5.256,-0.953 -7.449,-2.863 -2.198,-1.906 -3.294,-4.309 -3.294,-7.199 0,-1.271 0.23,-2.604 0.695,-3.99 l 30.018,-83.976 c 2.891,-7.75 9.081,-11.625 18.565,-11.625 9.597,0 15.845,3.923 18.736,11.776 z m -33.727,-31.926 -14.967,-41.833 -14.769,41.833 z"
   id="path1" />
	<path
   d="m 941.409,711.008 c 1.271,1.969 1.905,3.934 1.905,5.898 0,2.896 -1.134,5.355 -3.394,7.377 -2.264,2.023 -4.785,3.037 -7.568,3.037 -3.482,0 -6.322,-1.607 -8.522,-4.822 l -29.493,-44.932 c -4.813,6.459 -12.316,16.088 -22.508,28.889 v 10.348 c 0,3.389 -1.052,5.99 -3.149,7.801 -2.099,1.811 -4.55,2.717 -7.348,2.717 -2.917,0 -5.308,-0.867 -7.173,-2.607 -2.219,-1.852 -3.323,-4.457 -3.323,-7.818 v -87.588 c 0,-3.242 1.104,-5.85 3.323,-7.818 1.865,-1.737 4.256,-2.607 7.173,-2.607 2.798,0 5.249,0.928 7.348,2.777 2.097,1.852 3.149,4.396 3.149,7.634 v 43.723 l 38.172,-49.97 c 2.196,-2.775 4.859,-4.164 7.98,-4.164 2.892,0 5.436,1.061 7.634,3.18 2.196,2.119 3.296,4.558 3.296,7.31 0,2.178 -0.799,4.297 -2.401,6.359 l -18.567,24.307 z"
   id="path2" />
	<path
   d="m 1099.731,629.292 v 53.958 c 0,14.113 -4.251,25.043 -12.752,32.793 -8.502,7.75 -19.928,11.623 -34.267,11.623 -14.461,0 -25.913,-3.873 -34.354,-11.623 -8.445,-7.75 -12.667,-18.68 -12.667,-32.793 v -53.958 c 0,-3.238 1.02,-5.782 3.062,-7.634 2.042,-1.85 4.519,-2.777 7.437,-2.777 2.798,0 5.247,0.928 7.348,2.777 2.096,1.852 3.148,4.396 3.148,7.634 v 53.958 c 0,15.732 8.676,23.596 26.027,23.596 17.349,0 26.024,-7.863 26.024,-23.596 v -53.958 c 0,-3.238 1.019,-5.782 3.062,-7.634 2.04,-1.85 4.519,-2.777 7.435,-2.777 2.8,0 5.251,0.928 7.349,2.777 2.098,1.851 3.148,4.395 3.148,7.634"
   id="path3" />
	<path
   d="m 1186.228,716.895 c 0,3.361 -1.022,5.939 -3.065,7.734 -2.04,1.795 -4.518,2.691 -7.43,2.691 -2.803,0 -5.251,-0.896 -7.352,-2.691 -2.099,-1.795 -3.146,-4.373 -3.146,-7.734 v -87.588 c 0,-3.242 1.048,-5.791 3.146,-7.645 2.101,-1.854 4.549,-2.781 7.352,-2.781 2.912,0 5.39,0.928 7.43,2.781 2.043,1.854 3.065,4.402 3.065,7.645 z"
   id="path4" />
	<path
   d="m 1332.755,639.7 h -24.115 v 77.189 c 0,3.361 -1.053,5.941 -3.15,7.736 -2.099,1.799 -4.55,2.695 -7.348,2.695 -2.916,0 -5.395,-0.896 -7.437,-2.695 -2.042,-1.795 -3.062,-4.375 -3.062,-7.736 V 639.7 h -27.289 c -3.223,0 -5.755,-1.011 -7.599,-3.036 -1.845,-2.021 -2.764,-4.481 -2.764,-7.372 0,-2.777 0.926,-5.206 2.776,-7.289 1.85,-2.082 4.396,-3.122 7.634,-3.122 h 72.353 c 3.352,0 5.926,1.04 7.721,3.122 1.794,2.083 2.69,4.512 2.69,7.289 0,2.891 -0.896,5.351 -2.69,7.372 -1.794,2.025 -4.369,3.036 -7.72,3.036"
   id="path5" />
	<path
   d="m 1497.501,635.364 -35.22,50.667 v 30.836 c 0,3.369 -1.053,5.953 -3.15,7.752 -2.099,1.803 -4.552,2.701 -7.348,2.701 -2.8,0 -5.251,-0.896 -7.35,-2.695 -2.098,-1.795 -3.146,-4.373 -3.146,-7.734 v -29.727 l -35.396,-51.974 c -1.274,-1.966 -1.907,-3.931 -1.907,-5.898 0,-2.892 1.092,-5.351 3.281,-7.375 2.189,-2.023 4.668,-3.036 7.431,-3.036 3.455,0 6.222,1.579 8.296,4.736 l 28.287,41.463 29.001,-41.718 c 2.202,-2.987 4.985,-4.481 8.348,-4.481 2.783,0 5.273,1.013 7.478,3.036 2.2,2.024 3.305,4.483 3.305,7.375 -10e-4,2.081 -0.638,4.107 -1.91,6.072"
   id="path6" />
</g>
<g
   id="g11"
   transform="translate(-38.610807,-320.296)">
	<path
   fill="#ff0000"
   d="m 618.608,756.337 c 0,0.228 -0.007,0.452 -0.025,0.679 -0.011,0.098 -0.023,0.198 -0.034,0.296 -0.019,0.156 -0.049,0.313 -0.074,0.469 0,0.02 -0.008,0.036 -0.016,0.059 0,0.005 0,0.012 -0.003,0.017 v 0.013 c -0.029,0.151 -0.063,0.308 -0.109,0.459 0,0.012 -0.007,0.017 -0.015,0.029 0,0.017 0,0.029 -0.011,0.046 -0.034,0.132 -0.075,0.267 -0.128,0.4 -0.016,0.039 -0.027,0.081 -0.045,0.122 -0.071,0.179 -0.146,0.364 -0.233,0.545 -0.074,0.168 -0.161,0.329 -0.255,0.498 -0.091,0.168 -0.192,0.329 -0.301,0.493 -0.086,0.139 -0.184,0.271 -0.289,0.405 -0.038,0.054 -0.072,0.1 -0.116,0.151 -0.098,0.129 -0.211,0.254 -0.319,0.383 l -8.433,9.407 c -2.877,3.213 -7.97,3.845 -11.678,1.445 -0.672,-0.438 -1.363,-0.869 -2.058,-1.294 -0.804,-0.608 -1.484,-1.341 -2.005,-2.176 l -25.534,-40.622 -0.03,-0.054 -19.508,-31.048 -46.274,-73.637 c -3.336,-5.308 -11.675,-5.308 -15.01,0 l -46.272,73.637 -19.513,31.048 -0.034,0.059 -25.526,40.617 c -0.521,0.835 -1.2,1.567 -2.007,2.176 -0.695,0.425 -1.387,0.856 -2.059,1.294 -3.706,2.399 -8.798,1.768 -11.675,-1.445 l -8.435,-9.407 c -0.264,-0.303 -0.508,-0.615 -0.725,-0.939 -0.051,-0.076 -0.104,-0.156 -0.15,-0.237 -0.308,-0.505 -0.553,-1.032 -0.731,-1.572 -0.042,-0.117 -0.074,-0.239 -0.103,-0.354 -0.03,-0.093 -0.052,-0.186 -0.069,-0.278 -0.014,-0.039 -0.024,-0.081 -0.031,-0.127 -0.005,-0.013 -0.013,-0.024 -0.013,-0.037 -0.011,-0.051 -0.021,-0.103 -0.028,-0.156 -0.011,-0.063 -0.022,-0.127 -0.033,-0.19 -0.012,-0.07 -0.024,-0.134 -0.028,-0.197 -0.019,-0.098 -0.03,-0.198 -0.036,-0.296 -0.03,-0.383 -0.035,-0.767 -0.011,-1.149 0.086,-1.194 0.464,-2.383 1.142,-3.462 l 0.325,-0.521 0.597,-0.952 42.683,-67.914 72.732,-115.743 c 3.335,-5.308 11.674,-5.308 15.01,0 l 72.732,115.743 42.683,67.914 0.597,0.952 0.327,0.521 c 0.675,1.079 1.055,2.268 1.141,3.462 0.009,0.153 0.013,0.312 0.013,0.468"
   id="path7" />
	<g
   id="g8">
		<defs
   id="defs7">
			<path
   id="SVGID_1_"
   d="m 421.508,727.756 c -0.396,0.114 -0.796,0.229 -1.188,0.352 l -0.036,0.059 -25.526,40.617 c -0.521,0.835 -1.2,1.567 -2.007,2.176 0.331,-0.215 0.668,-0.418 1.005,-0.623 3.497,-2.116 7.244,-4.138 11.21,-6.04 11.7,-5.627 25.331,-10.236 40.3,-13.423 8.913,-1.896 18.305,-3.288 28.044,-4.099 v -28.184 c -18.335,1.345 -35.766,4.489 -51.802,9.165" />
		</defs>
		<clipPath
   id="SVGID_2_">
			<use
   xlink:href="#SVGID_1_"
   overflow="visible"
   id="use7" />
		</clipPath>
		
			<linearGradient
   id="SVGID_3_"
   gradientUnits="userSpaceOnUse"
   x1="-644.39008"
   y1="1683.4824"
   x2="-644.00702"
   y2="1683.4824"
   gradientTransform="matrix(260.964,-116.2711,-116.2711,-260.964,364236.06,365193.5)">
			<stop
   offset="0"
   style="stop-color:#231F20"
   id="stop7" />
			<stop
   offset="1"
   style="stop-color:#FF0000"
   id="stop8" />
		</linearGradient>
		<polygon
   clip-path="url(#SVGID_2_)"
   fill="url(#SVGID_3_)"
   points="459.964,688.643 492.778,762.287 406.094,800.905 373.283,727.263 "
   id="polygon8"
   style="fill:url(#SVGID_3_)" />
	</g>
	<g
   id="g10">
		<defs
   id="defs8">
			<path
   id="SVGID_4_"
   d="m 513.908,746.767 c 15.194,1.277 29.534,3.95 42.542,7.749 9.346,2.725 18,6.025 25.801,9.78 3.966,1.902 7.715,3.924 11.211,6.04 0.334,0.205 0.673,0.408 1.003,0.623 -0.808,-0.608 -1.484,-1.341 -2.005,-2.176 l -25.534,-40.622 -0.03,-0.054 c -5.825,-1.738 -11.858,-3.271 -18.048,-4.588 -11.158,-2.378 -22.852,-4.04 -34.939,-4.929 v 28.177 z" />
		</defs>
		<clipPath
   id="SVGID_5_">
			<use
   xlink:href="#SVGID_4_"
   overflow="visible"
   id="use8" />
		</clipPath>
		
			<linearGradient
   id="SVGID_6_"
   gradientUnits="userSpaceOnUse"
   x1="-641.93213"
   y1="1683.834"
   x2="-641.54938"
   y2="1683.834"
   gradientTransform="matrix(-259.6918,-156.5107,-156.5107,259.6918,97483.5,-536944.88)">
			<stop
   offset="0"
   style="stop-color:#231F20"
   id="stop9" />
			<stop
   offset="1"
   style="stop-color:#FF0000"
   id="stop10" />
		</linearGradient>
		<polygon
   clip-path="url(#SVGID_5_)"
   fill="url(#SVGID_6_)"
   points="490.756,757.004 535.371,682.975 617.617,732.543 573.002,806.571 "
   id="polygon10"
   style="fill:url(#SVGID_6_)" />
	</g>
	<path
   fill="#ff0000"
   d="m 493.608,701.008 h -12.662 c -4.169,0 -6.772,-4.51 -4.688,-8.117 l 6.333,-10.971 6.333,-10.967 c 2.082,-3.606 7.291,-3.606 9.372,0 l 6.333,10.967 6.332,10.971 c 2.085,3.607 -0.519,8.117 -4.688,8.117 z"
   id="path10" />
</g>
</svg>
