<?xml version="1.0" encoding="UTF-8" standalone="no"?>
<!-- Created with Inkscape (http://www.inkscape.org/) -->

<svg
   width="72mm"
   height="20.644411mm"
   viewBox="-5 -5 72 20.644411"
   version="1.1"
   id="svg5"
   inkscape:version="1.3.2 (091e20ef0f, 2023-11-25)"
   sodipodi:docname="fedora.svg"
   xmlns:inkscape="http://www.inkscape.org/namespaces/inkscape"
   xmlns:sodipodi="http://sodipodi.sourceforge.net/DTD/sodipodi-0.dtd"
   xmlns="http://www.w3.org/2000/svg"
   xmlns:svg="http://www.w3.org/2000/svg">
  <sodipodi:namedview
     id="namedview7"
     pagecolor="#505050"
     bordercolor="#ffffff"
     borderopacity="1"
     inkscape:showpageshadow="0"
     inkscape:pageopacity="0"
     inkscape:pagecheckerboard="1"
     inkscape:deskcolor="#505050"
     inkscape:document-units="mm"
     showgrid="false"
     inkscape:zoom="1.76315"
     inkscape:cx="225.44877"
     inkscape:cy="-87.060091"
     inkscape:window-width="5120"
     inkscape:window-height="1371"
     inkscape:window-x="0"
     inkscape:window-y="0"
     inkscape:window-maximized="1"
     inkscape:current-layer="layer1"
     showguides="true" />
  <defs
     id="defs2" />
  <g
     inkscape:label="Layer 1"
     inkscape:groupmode="layer"
     id="layer1"
     transform="translate(-459.8707,-44.023384)">
    <g
       id="g1037"
       transform="matrix(0.41905998,0,0,0.41905998,586.57111,41.59352)"
       style="stroke-width:0.923861">
      <path
         id="path1626"
         style="fill:#51a2da;fill-opacity:1;fill-rule:nonzero;stroke:none;stroke-width:0.325921"
         d="m -289.64163,-6.1330993 c -13.59905,0 -24.62032,11.0174513 -24.62917,24.6134503 h -0.005 v 19.06505 h 0.005 c 0.007,3.086633 2.50744,5.585119 5.59563,5.585119 h 0.0263 0.005 19.01254 c 13.60061,-0.0087 24.6187,-11.029727 24.6187,-24.629173 0,-13.6052151 -11.02396,-24.6344463 -24.62919,-24.6344463 z m 4.99198,10.1361923 c 4.13635,0 8.04175,3.1694212 8.04175,7.537847 0,0.405143 -0.002,0.810788 -0.0683,1.270274 -0.11451,1.162279 -1.17415,1.995812 -2.33064,1.831968 -1.15647,-0.165785 -1.94093,-1.260607 -1.72697,-2.409357 0.0196,-0.131138 0.0263,-0.339019 0.0263,-0.692885 0,-2.4767964 -2.02547,-3.4329965 -3.94215,-3.4329965 -1.91551,0 -3.64361,1.6107477 -3.64818,3.4329965 0.0331,2.107861 0,4.200632 0,6.304265 l 3.5537,-0.02685 c 2.77554,-0.05751 2.80667,4.126089 0.0315,4.104851 l -3.5852,0.02685 c -0.009,1.695407 0.0139,1.387536 0.005,2.241424 0,0 0.0305,2.070874 -0.0315,3.642939 -0.42905,4.617052 -4.3588,8.309432 -9.08109,8.309432 -5.00525,0 -9.13359,-4.094994 -9.13359,-9.112563 0.15037,-5.161786 4.27044,-9.218529 9.4538,-9.170336 l 2.88705,-0.02148 v 4.099602 l -2.88705,0.02685 h -0.021 c -2.8488,0.08419 -5.28654,2.014661 -5.33319,5.065451 0,2.779783 2.24647,5.007747 5.03398,5.007747 2.78288,0 5.00773,-2.026874 5.00773,-5.002481 0.0317,-4.934728 -0.022,-10.38585 -0.005,-15.511361 0.002,-0.287984 0.0156,-0.516965 0.0473,-0.834607 0.46992,-3.7948136 3.86435,-6.6874934 7.7058,-6.6874934 z" />
      <g
         id="g1644"
         style="fill:#51a2da;fill-opacity:1;stroke-width:0.293594"
         transform="matrix(1.0927383,0,0,1.0927383,-343.03209,-122.92202)">
        <path
           d="m 96.729167,125.3578 c -3.595373,1.38954 -6.03555,4.80292 -6.045574,9.01632 -0.0105,4.41352 3.082522,10.10943 9.487987,10.15149 4.30838,0.0283 6.46291,-1.58283 7.62603,-2.6768 0.77153,-0.68369 0.8255,-1.87009 0.11854,-2.61974 -0.70838,-0.75106 -1.89761,-0.76906 -2.6268,-0.0385 -0.86818,0.81562 -2.14666,2.02425 -5.772524,1.62173 -1.555755,-0.17216 -3.227339,-1.43528 -3.785318,-2.40173 l 11.879842,-5.05073 c 0.9084,-0.40358 1.32573,-1.45803 0.94121,-2.37421 -2.12076,-4.1731 -5.88103,-7.92444 -11.823393,-5.62783 z m 7.456683,5.48995 -9.885684,4.22249 c -0.705852,-2.63428 2.187448,-5.73353 3.76568,-6.31024 2.366314,-0.86468 4.977204,0.10837 6.120004,2.08775 z"
           style="fill:#51a2da;fill-opacity:1;fill-rule:evenodd;stroke:none;stroke-width:0.298258"
           id="path1628"
           sodipodi:nodetypes="ssscccccccsccsc" />
        <path
           id="path1630"
           style="fill:#51a2da;fill-opacity:1;stroke-width:8.72408;stroke-linecap:round;stroke-linejoin:round"
           d="m 142.75841,124.51519 a 10.043481,9.9623653 0 0 0 -10.04462,9.9635 10.043481,9.9623653 0 0 0 10.04462,9.96093 10.043481,9.9623653 0 0 0 10.04204,-9.96093 10.043481,9.9623653 0 0 0 -10.04204,-9.9635 z m 0,3.73185 a 6.2822799,6.2315417 0 0 1 6.28239,6.23165 6.2822799,6.2315417 0 0 1 -6.28239,6.23165 6.2822799,6.2315417 0 0 1 -6.2824,-6.23165 6.2822799,6.2315417 0 0 1 6.2824,-6.23165 z" />
        <path
           style="color:#000000;font-style:normal;font-variant:normal;font-weight:normal;font-stretch:normal;font-size:medium;line-height:normal;font-family:sans-serif;font-variant-ligatures:normal;font-variant-position:normal;font-variant-caps:normal;font-variant-numeric:normal;font-variant-alternates:normal;font-feature-settings:normal;text-indent:0;text-align:start;text-decoration:none;text-decoration-line:none;text-decoration-style:solid;text-decoration-color:#000000;letter-spacing:normal;word-spacing:normal;text-transform:none;writing-mode:lr-tb;direction:ltr;text-orientation:mixed;dominant-baseline:auto;baseline-shift:baseline;text-anchor:start;white-space:normal;shape-padding:0;clip-rule:nonzero;display:inline;overflow:visible;visibility:visible;isolation:auto;mix-blend-mode:normal;color-interpolation:sRGB;color-interpolation-filters:linearRGB;solid-color:#000000;solid-opacity:1;vector-effect:none;fill:#51a2da;fill-opacity:1;fill-rule:nonzero;stroke:none;stroke-width:1.78954;stroke-linecap:round;stroke-linejoin:round;stroke-miterlimit:4;stroke-dasharray:none;stroke-dashoffset:0;stroke-opacity:1;color-rendering:auto;image-rendering:auto;shape-rendering:auto;text-rendering:auto;enable-background:accumulate"
           d="m 157.27615,124.6433 c -1.59548,0 -1.86142,1.31669 -1.85308,1.84776 v 15.98997 c -0.0436,1.03365 0.81202,1.89464 1.88299,1.89464 1.07096,0 1.92667,-0.86099 1.88297,-1.89464 0,0 0.0284,-5.94671 0,-9.75342 -0.0284,-3.80671 3.06985,-4.63179 4.14789,-4.63179 0.80054,0 1.44015,0.44589 2.0745,0.42206 0.94151,-0.0354 1.71459,-0.6668 1.71459,-1.77397 -0.0283,-1.78855 -2.22269,-2.04245 -3.84053,-2.00941 -1.61785,0.0331 -2.9842,0.52982 -4.16721,1.2363 0,0 -0.24663,-1.3275 -1.84212,-1.3275 z"
           id="path1632"
           inkscape:connector-curvature="0"
           sodipodi:nodetypes="zccsczcsczcz" />
        <g
           style="fill:#51a2da;fill-opacity:1;stroke-width:0.478097"
           transform="matrix(1.7992734,0,0,1.7380239,67.446745,-121.99926)"
           id="g1636">
          <path
             style="color:#000000;font-style:normal;font-variant:normal;font-weight:normal;font-stretch:normal;font-size:medium;line-height:normal;font-family:sans-serif;font-variant-ligatures:normal;font-variant-position:normal;font-variant-caps:normal;font-variant-numeric:normal;font-variant-alternates:normal;font-feature-settings:normal;text-indent:0;text-align:start;text-decoration:none;text-decoration-line:none;text-decoration-style:solid;text-decoration-color:#000000;letter-spacing:normal;word-spacing:normal;text-transform:none;writing-mode:lr-tb;direction:ltr;text-orientation:mixed;dominant-baseline:auto;baseline-shift:baseline;text-anchor:start;white-space:normal;shape-padding:0;clip-rule:nonzero;display:inline;overflow:visible;visibility:visible;opacity:1;isolation:auto;mix-blend-mode:normal;color-interpolation:sRGB;color-interpolation-filters:linearRGB;solid-color:#000000;solid-opacity:1;vector-effect:none;fill:#51a2da;fill-opacity:1;fill-rule:nonzero;stroke:none;stroke-width:1.01196;stroke-linecap:butt;stroke-linejoin:miter;stroke-miterlimit:4;stroke-dasharray:none;stroke-dashoffset:0;stroke-opacity:1;color-rendering:auto;image-rendering:auto;shape-rendering:auto;text-rendering:auto;enable-background:accumulate"
             d="m 60.088341,141.88715 c -1.393394,0 -2.398273,0.42786 -3.13079,0.97048 -1.110459,0.82303 0.08453,2.54386 1.19499,1.72083 0.505399,-0.37438 0.881229,-0.57413 1.9358,-0.57413 1.312636,0.0273 2.368475,0.53812 2.368475,1.55443 -0.703746,0.461 -3.763534,0.84205 -5.406566,1.8093 -1.643032,0.96724 -1.555977,2.18804 -1.555977,2.98017 0,1.73757 1.769154,2.90976 3.301505,2.90976 1.532352,0 2.182891,-0.33275 3.682046,-1.39626 v 0.30438 c -0.04845,1.45961 2.09629,1.45961 2.047845,0 v -6.23787 c 0.0066,-2.58701 -1.787667,-4.00169 -4.437328,-4.04109 z m 2.439505,5.75572 c -5.12e-4,0.68595 0.0092,0.8837 -0.009,1.56941 -0.004,0.8235 -0.503683,1.20524 -1.026925,1.52032 -0.523236,0.31508 -1.586095,0.59147 -2.201906,0.62167 -0.710308,0.0243 -1.65271,-0.1418 -1.702203,-1.01389 5.12e-4,-0.5264 0.246817,-0.85289 0.65127,-1.21646 0.957742,-0.74385 2.255423,-0.99358 4.288768,-1.48105 z"
             id="path1634"
             inkscape:connector-curvature="0"
             sodipodi:nodetypes="ccccczszcccccscscccss" />
        </g>
        <path
           style="font-style:normal;font-variant:normal;font-weight:bold;font-stretch:normal;font-size:medium;line-height:25px;font-family:Comfortaa;-inkscape-font-specification:Comfortaa;letter-spacing:0px;word-spacing:0px;fill:#51a2da;fill-opacity:1;stroke:none;stroke-width:0.450511px;stroke-linecap:butt;stroke-linejoin:miter;stroke-opacity:1"
           d="m 128.56291,116.32562 c -1.15198,-0.0687 -2.00005,1.07152 -1.82333,2.15483 v 8.36367 c -3.63641,-3.04884 -9.55863,-2.83682 -12.91558,0.5392 -3.39481,3.02498 -4.03972,8.51062 -1.57068,12.28835 1.81366,2.85198 5.13136,4.88571 8.55043,4.72423 2.14993,-0.0196 4.2827,-0.9455 5.93583,-2.31651 -0.16962,1.08236 0.66623,2.22553 1.82333,2.15604 1.13581,0.0506 2.01523,-1.07045 1.84088,-2.15482 -0.0197,-8.04418 0.0197,-16.08885 -0.0197,-24.13274 -0.0591,-0.90718 -0.92676,-1.65309 -1.83241,-1.62225 z m -7.9771,12.01866 c 3.28298,-0.0857 6.21551,2.86987 6.15377,6.12271 0.069,3.25587 -2.87355,6.20634 -6.15377,6.12273 -3.11889,0.0827 -5.97784,-2.55935 -6.1372,-5.65665 -0.33212,-3.1928 2.28898,-6.30485 5.49957,-6.55826 0.21182,-0.0207 0.42464,-0.0306 0.63763,-0.0306 z"
           id="path1638"
           inkscape:connector-curvature="0"
           sodipodi:nodetypes="ccccccccccccccccccc" />
        <g
           style="fill:#51a2da;fill-opacity:1;stroke-width:0.490408"
           transform="matrix(1.7361841,0,0,1.7118711,84.821887,-122.89238)"
           id="g1642">
          <path
             style="font-style:normal;font-variant:normal;font-weight:bold;font-stretch:normal;font-size:medium;line-height:25px;font-family:Comfortaa;-inkscape-font-specification:Comfortaa;letter-spacing:0px;word-spacing:0px;fill:#51a2da;fill-opacity:1;stroke:none;stroke-width:1.03802;stroke-linecap:butt;stroke-linejoin:miter;stroke-miterlimit:4;stroke-dasharray:none;stroke-opacity:1"
             d="m -2.5312666,143.62929 v 11.47421 c -0.003,1.4145 2.12023294,1.4145 2.11718234,0 v -7.65727 H 1.7635608 c 0.5092674,0 0.9446445,-0.37386 0.9446445,-0.9741 0,-0.60024 -0.4664127,-0.9648 -0.9446445,-0.9648 h -2.17764176 v -1.76487 c 0,-1.1293 0.8711995,-2.06801 2.62476896,-2.04625 0.6099425,0.008 0.8261384,0.1567 1.048907,0.29442 1.2161282,0.81695 2.3869012,-1.07509 1.1131122,-1.79886 -0.7812122,-0.48483 -1.5111158,-0.65571 -2.3819993,-0.65571 -2.74449516,0 -4.5059235,2.11423 -4.5219745,4.09323 z"
             id="path1640"
             inkscape:connector-curvature="0"
             sodipodi:nodetypes="ccccczcccscccc" />
        </g>
      </g>
    </g>
  </g>
</svg>
