<?xml version="1.0" encoding="UTF-8" standalone="no"?>
<svg
   class="transition-colors duration-200  "
   width="120"
   height="30"
   viewBox="-5 -5 120 30"
   fill="none"
   version="1.1"
   id="svg17"
   sodipodi:docname="tailscale.svg"
   inkscape:version="1.3.2 (091e20ef0f, 2023-11-25)"
   xmlns:inkscape="http://www.inkscape.org/namespaces/inkscape"
   xmlns:sodipodi="http://sodipodi.sourceforge.net/DTD/sodipodi-0.dtd"
   xmlns="http://www.w3.org/2000/svg"
   xmlns:svg="http://www.w3.org/2000/svg">
  <defs
     id="defs17" />
  <sodipodi:namedview
     id="namedview17"
     pagecolor="#ffffff"
     bordercolor="#000000"
     borderopacity="0.25"
     inkscape:showpageshadow="2"
     inkscape:pageopacity="0.0"
     inkscape:pagecheckerboard="0"
     inkscape:deskcolor="#d1d1d1"
     showgrid="false"
     inkscape:zoom="10.065909"
     inkscape:cx="52.603296"
     inkscape:cy="0.84443441"
     inkscape:current-layer="svg17" />
  <ellipse
     cx="2.44719"
     cy="10.1796"
     rx="2.44719"
     ry="2.4412799"
     fill="#242424"
     id="ellipse1" />
  <ellipse
     cx="9.7909403"
     cy="10.1796"
     rx="2.44719"
     ry="2.4412799"
     fill="#242424"
     id="ellipse2" />
  <ellipse
     opacity="0.2"
     cx="2.44719"
     cy="17.5077"
     rx="2.44719"
     ry="2.4412799"
     fill="#242424"
     id="ellipse3" />
  <ellipse
     opacity="0.2"
     cx="17.1269"
     cy="17.5077"
     rx="2.44719"
     ry="2.4412799"
     fill="#242424"
     id="ellipse4" />
  <ellipse
     cx="9.7909403"
     cy="17.5077"
     rx="2.44719"
     ry="2.4412799"
     fill="#242424"
     id="ellipse5" />
  <ellipse
     cx="17.1269"
     cy="10.1796"
     rx="2.44719"
     ry="2.4412799"
     fill="#242424"
     id="ellipse6" />
  <ellipse
     opacity="0.2"
     cx="2.44719"
     cy="2.8592401"
     rx="2.44719"
     ry="2.4412799"
     fill="#242424"
     id="ellipse7" />
  <ellipse
     opacity="0.2"
     cx="9.7909403"
     cy="2.8592401"
     rx="2.44719"
     ry="2.4412799"
     fill="#242424"
     id="ellipse8" />
  <ellipse
     opacity="0.2"
     cx="17.1269"
     cy="2.8592401"
     rx="2.44719"
     ry="2.4412799"
     fill="#242424"
     id="ellipse9" />
  <path
     d="m 34.3979,18.458 c 0.6928,0 1.2557,-0.0647 1.9269,-0.1943 v -2.5053 c -0.4114,0.1512 -0.866,0.1944 -1.299,0.1944 -1.0608,0 -1.4505,-0.5184 -1.4505,-1.5118 V 9.34402 h 2.7495 V 6.83875 H 33.5753 V 3.12403 h -3.031 v 3.71472 h -1.9701 v 2.50527 h 1.9701 v 5.37768 c 0,2.3757 1.2557,3.7363 3.8536,3.7363 z"
     fill="#242424"
     id="path9" />
  <path
     d="m 41.2747,18.458 c 1.6237,0 2.7062,-0.5399 3.2475,-1.3822 0.0433,0.3672 0.1732,0.8639 0.3464,1.1663 h 2.7278 c -0.1515,-0.5184 -0.2598,-1.3391 -0.2598,-1.879 v -5.9176 c 0,-2.4405 -1.7536,-3.82273 -4.7196,-3.82273 -2.2516,0 -4.0052,0.8423 -4.9794,2.07334 l 1.732,1.70619 c 0.7794,-0.8639 1.7752,-1.31744 2.9876,-1.31744 1.4722,0 2.1217,0.49673 2.1217,1.23104 0,0.6263 -0.433,1.0583 -2.7712,1.0583 -2.2515,0 -4.5247,0.9286 -4.5247,3.5203 0,2.3973 1.7319,3.5635 4.0917,3.5635 z m 0.6062,-2.2893 c -1.1691,0 -1.7103,-0.4967 -1.7103,-1.3822 0,-0.7775 0.6495,-1.2958 1.732,-1.2958 1.7319,0 2.2082,-0.108 2.5763,-0.4752 v 0.9287 c 0,1.2311 -1.0392,2.2245 -2.598,2.2245 z"
     fill="#242424"
     id="path10" />
  <path
     d="m 49.3069,5.39173 h 3.1608 V 2.5625 h -3.1608 z m 0.0649,12.85037 h 3.031 V 6.83875 h -3.031 z"
     fill="#242424"
     id="path11" />
  <path
     d="m 54.6109,18.2421 h 3.0309 V 2.90805 h -3.0309 z"
     fill="#242424"
     id="path12" />
  <path
     d="m 63.9416,18.458 c 3.3341,0 5.0444,-1.7493 5.0444,-3.5851 0,-1.663 -0.8443,-2.894 -3.6155,-3.3908 -1.9484,-0.3455 -3.1608,-0.7775 -3.1608,-1.447 0,-0.58309 0.6928,-0.99344 1.8618,-0.99344 1.0392,0 1.9052,0.34556 2.5547,1.10144 L 68.553,8.52333 C 67.5788,7.31389 65.9767,6.62277 64.0715,6.62277 c -2.9226,0 -4.7412,1.555 -4.7412,3.45553 0,2.0734 1.9051,3.002 3.9619,3.3692 1.7103,0.3024 2.6629,0.6263 2.6629,1.3606 0,0.6263 -0.6712,1.1447 -1.9485,1.1447 -1.2557,0 -2.2299,-0.5832 -2.6846,-1.447 l -2.5546,1.2094 c 0.6278,1.555 2.7711,2.7428 5.1742,2.7428 z"
     fill="#242424"
     id="path13" />
  <path
     d="m 75.7621,18.458 c 2.165,0 3.7238,-0.8638 4.8928,-2.8076 l -2.4247,-1.231 c -0.4547,0.9071 -1.1907,1.5334 -2.4681,1.5334 -1.9268,0 -2.966,-1.555 -2.966,-3.434 0,-1.8789 1.1042,-3.39075 2.966,-3.39075 1.1691,0 1.9485,0.62632 2.4031,1.57655 L 80.6116,9.40882 C 79.7889,7.61625 78.1652,6.62277 75.7621,6.62277 c -3.9618,0 -5.9969,2.89403 -5.9969,5.89603 0,3.2612 2.4681,5.9392 5.9969,5.9392 z"
     fill="#242424"
     id="path14" />
  <path
     d="m 85.4829,18.458 c 1.6238,0 2.7062,-0.5399 3.2475,-1.3822 0.0433,0.3672 0.1732,0.8639 0.3464,1.1663 h 2.7278 c -0.1515,-0.5184 -0.2598,-1.3391 -0.2598,-1.879 v -5.9176 c 0,-2.4405 -1.7536,-3.82273 -4.7196,-3.82273 -2.2515,0 -4.0051,0.8423 -4.9794,2.07334 l 1.732,1.70619 c 0.7794,-0.8639 1.7752,-1.31744 2.9876,-1.31744 1.4722,0 2.1217,0.49673 2.1217,1.23104 0,0.6263 -0.433,1.0583 -2.7712,1.0583 -2.2515,0 -4.5247,0.9286 -4.5247,3.5203 0,2.3973 1.7319,3.5635 4.0917,3.5635 z m 0.6062,-2.2893 c -1.169,0 -1.7103,-0.4967 -1.7103,-1.3822 0,-0.7775 0.6495,-1.2958 1.732,-1.2958 1.7319,0 2.2082,-0.108 2.5763,-0.4752 v 0.9287 c 0,1.2311 -1.0392,2.2245 -2.598,2.2245 z"
     fill="#242424"
     id="path15" />
  <path
     d="m 93.3263,18.2421 h 3.031 V 2.90805 h -3.031 z"
     fill="#242424"
     id="path16" />
  <path
     d="m 103.631,18.458 c 2.23,0 4.027,-0.8854 5.023,-2.462 l -2.295,-1.4686 c -0.606,0.9502 -1.407,1.4686 -2.728,1.4686 -1.493,0 -2.576,-0.8207 -2.857,-2.4189 h 8.616 v -1.0583 c 0,-3.002 -1.84,-5.89603 -5.78,-5.89603 -3.7457,0 -5.7807,2.91563 -5.7807,5.91763 0,4.2763 3.2257,5.9176 5.8017,5.9176 z m -2.749,-7.2566 c 0.476,-1.44703 1.472,-2.11654 2.793,-2.11654 1.493,0 2.403,0.88548 2.706,2.11654 z"
     fill="#242424"
     id="path17" />
</svg>
